
<svg id="svg" version="1.1" xmlns="http://www.w3.org/2000/svg" xmlns:xlink="http://www.w3.org/1999/xlink" width="400" height="391" viewBox="0, 0, 400,391"><g id="svgg"><path id="path0" d="M245.667 18.023 C 169.291 23.054,126.084 48.344,114.723 94.668 C 112.263 104.698,71.942 282.363,71.638 284.509 C 68.016 310.129,98.345 325.499,150.667 324.558 C 171.198 324.188,196.000 320.527,196.000 317.866 C 196.000 316.711,195.276 316.647,186.407 317.016 C 151.083 318.486,124.775 311.193,114.836 297.175 C 110.923 291.656,109.829 287.890,109.847 280.000 L 109.861 274.167 129.619 187.667 C 140.486 140.092,149.738 99.742,150.181 98.000 C 156.742 72.157,184.238 56.711,232.333 51.853 C 300.781 44.939,346.667 64.480,346.667 100.544 C 346.667 105.479,347.277 102.705,321.292 215.806 C 307.732 274.824,296.715 323.312,296.809 323.556 C 297.157 324.463,298.630 323.938,302.126 321.663 C 322.255 308.560,338.293 288.626,345.013 268.356 C 346.559 263.694,380.039 119.226,381.712 110.000 C 383.565 99.778,382.680 87.595,379.362 77.672 C 365.800 37.109,313.068 13.583,245.667 18.023 M242.256 66.575 C 242.855 66.649,243.755 66.648,244.256 66.572 C 244.757 66.495,244.267 66.435,243.167 66.437 C 242.067 66.438,241.657 66.501,242.256 66.575 M262.417 66.572 C 262.921 66.648,263.746 66.648,264.250 66.572 C 264.754 66.496,264.342 66.433,263.333 66.433 C 262.325 66.433,261.912 66.496,262.417 66.572 M236.750 66.896 C 237.071 66.980,237.596 66.980,237.917 66.896 C 238.237 66.813,237.975 66.744,237.333 66.744 C 236.692 66.744,236.429 66.813,236.750 66.896 M268.417 66.896 C 268.737 66.980,269.262 66.980,269.583 66.896 C 269.904 66.813,269.642 66.744,269.000 66.744 C 268.358 66.744,268.096 66.813,268.417 66.896 M218.083 73.915 C 220.054 73.974,223.279 73.974,225.250 73.915 C 227.221 73.856,225.608 73.808,221.667 73.808 C 217.725 73.808,216.112 73.856,218.083 73.915 M208.250 74.235 C 208.662 74.315,209.338 74.315,209.750 74.235 C 210.162 74.156,209.825 74.091,209.000 74.091 C 208.175 74.091,207.838 74.156,208.250 74.235 M233.254 74.236 C 233.669 74.315,234.269 74.312,234.587 74.229 C 234.906 74.146,234.567 74.080,233.833 74.084 C 233.100 74.088,232.839 74.156,233.254 74.236 M79.494 84.417 L 75.833 88.167 79.583 84.506 C 81.646 82.492,83.333 80.805,83.333 80.756 C 83.333 80.515,82.895 80.934,79.494 84.417 M320.667 84.167 C 321.662 85.175,322.552 86.000,322.644 86.000 C 322.736 86.000,321.996 85.175,321.000 84.167 C 320.004 83.158,319.114 82.333,319.023 82.333 C 318.931 82.333,319.671 83.158,320.667 84.167 M290.440 110.667 C 290.440 111.858,290.501 112.346,290.574 111.750 C 290.648 111.154,290.648 110.179,290.574 109.583 C 290.501 108.987,290.440 109.475,290.440 110.667 M53.411 287.000 C 53.411 287.642,53.479 287.904,53.563 287.583 C 53.647 287.262,53.647 286.737,53.563 286.417 C 53.479 286.096,53.411 286.358,53.411 287.000 M17.411 288.000 C 17.411 288.642,17.479 288.904,17.563 288.583 C 17.647 288.262,17.647 287.737,17.563 287.417 C 17.479 287.096,17.411 287.358,17.411 288.000 M17.411 297.667 C 17.411 298.308,17.479 298.571,17.563 298.250 C 17.647 297.929,17.647 297.404,17.563 297.083 C 17.479 296.762,17.411 297.025,17.411 297.667 M65.000 318.167 C 66.181 319.358,67.222 320.333,67.314 320.333 C 67.406 320.333,66.514 319.358,65.333 318.167 C 64.152 316.975,63.111 316.000,63.019 316.000 C 62.928 316.000,63.819 316.975,65.000 318.167 M265.649 332.917 L 264.500 334.167 265.750 333.018 C 266.913 331.949,267.153 331.667,266.899 331.667 C 266.843 331.667,266.281 332.229,265.649 332.917 M37.333 340.167 C 39.068 341.908,40.562 343.333,40.653 343.333 C 40.745 343.333,39.401 341.908,37.667 340.167 C 35.932 338.425,34.438 337.000,34.347 337.000 C 34.255 337.000,35.599 338.425,37.333 340.167 M260.315 338.250 L 259.167 339.500 260.417 338.351 C 261.580 337.282,261.820 337.000,261.565 337.000 C 261.510 337.000,260.947 337.563,260.315 338.250 M159.417 339.896 C 159.737 339.980,160.262 339.980,160.583 339.896 C 160.904 339.813,160.642 339.744,160.000 339.744 C 159.358 339.744,159.096 339.813,159.417 339.896 M126.921 340.236 C 127.335 340.315,127.935 340.312,128.254 340.229 C 128.573 340.146,128.233 340.080,127.500 340.084 C 126.767 340.088,126.506 340.156,126.921 340.236 M154.250 340.235 C 154.662 340.315,155.337 340.315,155.750 340.235 C 156.162 340.156,155.825 340.091,155.000 340.091 C 154.175 340.091,153.837 340.156,154.250 340.235 M136.730 340.582 C 139.057 340.639,142.957 340.640,145.397 340.583 C 147.837 340.526,145.933 340.479,141.167 340.479 C 136.400 340.478,134.404 340.525,136.730 340.582 M160.750 372.563 C 161.071 372.647,161.596 372.647,161.917 372.563 C 162.237 372.479,161.975 372.411,161.333 372.411 C 160.692 372.411,160.429 372.479,160.750 372.563 M155.921 372.902 C 156.335 372.982,156.935 372.979,157.254 372.896 C 157.573 372.812,157.233 372.747,156.500 372.751 C 155.767 372.754,155.506 372.823,155.921 372.902 M124.917 373.235 C 125.329 373.315,126.004 373.315,126.417 373.235 C 126.829 373.156,126.492 373.091,125.667 373.091 C 124.842 373.091,124.504 373.156,124.917 373.235 M149.750 373.239 C 150.254 373.315,151.079 373.315,151.583 373.239 C 152.087 373.162,151.675 373.100,150.667 373.100 C 149.658 373.100,149.246 373.162,149.750 373.239 M134.750 373.582 C 136.537 373.642,139.462 373.642,141.250 373.582 C 143.037 373.522,141.575 373.473,138.000 373.473 C 134.425 373.473,132.962 373.522,134.750 373.582 " stroke="none" fill="#eb242c" fill-rule="evenodd"></path><path id="path1" d="M242.833 66.564 C 227.381 67.225,204.951 70.908,204.183 72.912 C 203.744 74.054,204.898 74.384,208.333 74.097 C 214.018 73.623,232.642 73.842,238.667 74.454 C 274.661 78.108,292.821 92.062,290.352 114.167 C 289.875 118.436,250.382 291.836,248.773 296.725 C 241.647 318.379,217.643 332.312,177.675 337.991 C 106.175 348.152,54.744 329.114,53.430 292.000 C 53.197 285.440,51.279 294.284,78.820 174.945 C 92.302 116.522,103.333 68.405,103.333 68.017 C 103.333 66.385,102.108 66.800,97.167 70.107 C 76.362 84.026,59.967 105.291,54.201 125.833 C 52.686 131.234,18.706 279.079,18.188 282.525 C 11.009 330.323,50.971 365.904,119.500 372.730 C 133.608 374.135,162.590 372.935,182.000 370.142 C 241.402 361.594,276.382 335.749,285.955 293.333 C 286.513 290.858,296.212 248.333,307.507 198.833 C 318.803 149.333,328.201 107.558,328.393 106.000 C 331.626 79.757,297.893 64.209,242.833 66.564 " stroke="none" fill="#0c0c0c" fill-rule="evenodd"></path><path id="path2" d="M235.167 0.530 C 138.995 9.882,57.818 58.567,37.635 118.997 C 36.244 123.163,5.296 255.499,0.977 275.748 L 0.000 280.330 0.000 294.041 C -0.000 309.384,0.134 310.550,2.893 319.122 C 15.117 357.109,52.233 382.318,107.333 390.057 C 114.463 391.058,154.739 391.378,164.118 390.508 C 261.790 381.445,344.286 331.324,363.343 269.468 C 364.383 266.091,363.932 268.028,384.329 179.333 C 392.403 144.225,399.194 114.750,399.421 113.833 C 400.273 110.391,399.982 82.437,399.055 78.667 C 388.545 35.928,348.550 7.372,289.833 0.684 C 282.309 -0.173,243.521 -0.282,235.167 0.530 M283.000 18.474 C 350.120 25.497,390.282 62.735,381.712 110.000 C 380.039 119.226,346.559 263.694,345.013 268.356 C 338.293 288.626,322.255 308.560,302.126 321.663 C 298.630 323.938,297.157 324.463,296.809 323.556 C 296.715 323.312,307.732 274.824,321.292 215.806 C 347.277 102.705,346.667 105.479,346.667 100.544 C 346.667 64.480,300.781 44.939,232.333 51.853 C 184.238 56.711,156.742 72.157,150.181 98.000 C 149.738 99.742,140.486 140.092,129.619 187.667 L 109.861 274.167 109.847 280.000 C 109.829 287.890,110.923 291.656,114.836 297.175 C 124.775 311.193,151.083 318.486,186.407 317.016 C 195.276 316.647,196.000 316.711,196.000 317.866 C 196.000 320.527,171.198 324.188,150.667 324.558 C 98.345 325.499,68.016 310.129,71.638 284.509 C 71.942 282.363,112.263 104.698,114.723 94.668 C 126.084 48.344,169.291 23.054,245.667 18.023 C 252.867 17.548,276.936 17.839,283.000 18.474 M273.667 67.135 C 312.749 71.508,332.255 86.044,328.309 107.855 C 327.884 110.204,286.339 292.552,285.292 296.667 C 272.715 346.061,220.625 373.307,138.500 373.449 C 60.404 373.584,9.096 334.454,18.151 281.667 C 19.426 274.238,53.708 126.765,55.191 122.333 C 61.941 102.159,78.947 81.328,98.883 68.812 C 101.729 67.025,103.196 66.588,103.520 67.431 C 103.611 67.668,92.506 116.306,78.842 175.514 C 51.930 292.132,52.892 287.598,53.625 294.355 C 56.101 317.182,77.319 333.027,112.690 338.461 C 122.640 339.989,125.643 340.167,141.500 340.164 C 201.533 340.152,240.214 324.193,248.980 295.819 C 251.577 287.414,290.078 116.328,290.250 112.430 C 291.392 86.534,266.766 73.602,217.167 74.049 L 204.167 74.167 204.063 73.438 C 203.752 71.255,219.340 68.136,237.833 66.679 C 243.900 66.201,268.069 66.509,273.667 67.135 M238.768 93.481 C 258.876 96.550,267.521 105.901,265.039 121.898 C 264.088 128.027,231.254 270.587,230.188 273.216 C 223.560 289.558,206.978 297.755,179.560 298.243 C 149.046 298.785,135.450 291.833,134.752 275.331 C 134.551 270.563,134.797 268.966,137.654 256.500 C 140.302 244.945,147.434 213.691,156.175 175.333 C 158.117 166.808,161.126 153.608,162.861 146.000 C 164.597 138.392,166.544 129.842,167.188 127.000 C 168.723 120.235,169.437 118.019,171.055 115.000 C 178.002 102.036,191.675 94.769,212.667 92.882 C 216.654 92.523,235.298 92.951,238.768 93.481 " stroke="none" fill="#fbfbfb" fill-rule="evenodd"></path></g></svg>